<?xml version="1.0" encoding="UTF-8"?> <svg height="200" id="Layer_1" data-name="Layer 1" xmlns="http://www.w3.org/2000/svg" xmlns:xlink="http://www.w3.org/1999/xlink" viewBox="0 0 202.63 246.99"><defs><style>.cls-1{fill:#fff;font-family:Inter,ui-sans-serif,system-ui,-apple-system,BlinkMacSystemFont,Segoe UI,Roboto,Helvetica Neue,Arial,Noto Sans,sans-serif,Apple Color Emoji,Segoe UI Emoji,Segoe UI Symbol,Noto Color Emoji;font-size:27.62px;font-variation-settings:'wght' 300,'slnt' 0;font-weight:300;dominant-baseline:middle;text-anchor:middle}.cls-2{fill:none;stroke:#fff;stroke-width:1.31px}.cls-2,.cls-3{stroke-miterlimit:10}.cls-3{stroke:url(#linear-gradient);stroke-width:2.63px}.cls-3,.cls-4{fill:#0d1117}</style><linearGradient id="linear-gradient" x1="5.27" y1="197.36" x2="197.36" y2="5.27" gradientUnits="userSpaceOnUse"><stop offset="0" stop-color="#7546c9"/><stop offset=".5" stop-color="#0d1117"/><stop offset="1" stop-color="#7546c9"/></linearGradient></defs><rect class="cls-4" x="29.85" y="210.45" width="142.92" height="35.17" rx="17.58" ry="17.58"/><path id="mid-svg-text-st" pathLength="2" d="M29.85 231h142.92" stroke="transparent"/><rect class="cls-3" x="1.31" y="1.31" width="200" height="200" rx="16.67" ry="16.67"/><g><path class="cls-2" d="m97.41,33.79v7.95h-16v-23.75h15.98v7.77h7.83v-7.77h15.98v15.83c-2.7,0-5.35,0-8,0,0-2.59,0-5.19,0-7.78h-7.76v7.76h7.78v7.82h7.97v39.63h7.97v7.96h15.66v-7.88h7.96v7.91h-7.74v8h-15.82v15.77h-8.03c0-5.24,0-10.5,0-15.76,2.59,0,5.19,0,7.78,0v-7.92h-7.76v7.95h-7.98v-15.78h-7.83v7.73h-23.8v8.02h-8.04s.02.02.02.02v-7.95h-15.84v7.95l.02-.02h-15.81v23.78h-7.97v-7.89h-7.84v7.87h-7.97v-39.68h7.9v7.89h15.66v-7.89h55.58v-15.65h-7.92v7.72h-7.96v-7.89h7.89v-7.84h-7.87v-7.97h23.88v7.87h7.8v-15.72h-7.89v-8.01c-2.69,0-5.28,0-7.88,0,0-2.59,0-5.19,0-7.78h-7.92v7.76h7.95Zm8.04,31.85v7.72h7.72v-7.72h-7.72Zm-8.01-.26h7.72v-7.72h-7.72v7.72Z"/><path class="cls-2" d="m184.65,176.49h-23.8v-15.78h-7.98v7.9h-7.98v-7.96h-7.88s.02.02.02.02v-15.77h-23.83v15.77l.02-.02h-15.84v15.84l.02-.02c-2.67,0-5.34,0-8.01,0l.02.02v-15.81h-8v-39.62h-23.61v-8h-7.98v-7.97h7.96c0-2.69,0-5.28,0-7.88l-.02.02c5.28,0,10.56,0,15.84,0,0,0-.02-.02-.02-.02,0,2.58,0,5.15,0,7.82h15.8v7.97h7.97v8h-7.87v15.83c2.63,0,5.28,0,7.94,0,0,2.59,0,5.19,0,7.78h7.76v-7.76h-7.78v-7.95h7.98v7.88h7.84v-15.71h7.97v7.73h7.84v-7.71h7.96v7.88h-7.72v7.84h7.72v7.84h8v7.95h7.87v-15.76l-.02.02h15.97v7.76h7.8v-7.78h8.04v7.99h-8.04v7.86h-7.73v7.96h15.76v15.82Zm-87.28-31.58h-7.89v7.72h7.89v-7.72Zm63.51,7.71h7.72v-7.72h-7.72v7.72Zm-95.05-47.36v7.72h7.72v-7.72h-7.72Z"/><path class="cls-2" d="m184.65,73.42h-55.61V17.98h55.61v55.44Zm-47.56-47.42v39.36h39.52V26.01h-39.52Z"/><path class="cls-2" d="m73.59,17.98v55.39H18.15V17.98h55.44Zm-8.06,47.42V26.01H26.19v39.39h39.35Z"/><path class="cls-2" d="m184.65,105.23h-15.8v7.78h-7.94v-31.76h23.75v7.99h-15.76v7.99h15.76v7.99Z"/><path class="cls-2" d="m184.65,129.04h-7.94v-15.98h7.94v15.98Z"/><path class="cls-2" d="m113.18,105.03v7.98h-7.91v-7.75h-7.82v-7.98h7.9v7.75h7.83Z"/><path class="cls-2" d="m152.86,136.85h-7.95v-15.75h7.92c0,5.27,0,10.52,0,15.78,0,0,.02-.02.02-.02Z"/><path class="cls-2" d="m168.77,129h-7.89v-7.89h7.89v7.89Z"/><path class="cls-2" d="m144.96,113.01h-7.89v-7.89h7.89v7.89Z"/><path class="cls-2" d="m18.18,184.42v-55.51h55.34v55.51H18.18Zm8.01-47.52v39.52h39.36v-39.52H26.2Z"/><path class="cls-2" d="m137.02,160.66v15.81h15.78v7.95h-31.58v-7.94l-.02.02h7.87v-15.82h7.97l-.02-.02Z"/><path class="cls-2" d="m121.22,176.48h-7.97v7.95h-15.84c0-2.65,0-5.3,0-7.95,0,0-.02.02-.02.02h7.86v-8.04h7.98v-7.8s-.02.02-.02.02h7.99v15.82l.02-.02Z"/><path class="cls-2" d="m89.4,176.47v7.95h-7.93v-7.92c2.65,0,5.3,0,7.95,0,0,0-.02-.02-.02-.02Z"/><path class="cls-2" d="m168.77,57.57h-23.87v-23.71h23.87v23.71Z"/><path class="cls-2" d="m34.02,33.84h23.71v23.71h-23.71v-23.71Z"/><path class="cls-2" d="m57.76,144.74v23.86h-23.73v-23.86h23.73Z"/></g><text x="71.46"><textPath class="cls-1" href="#mid-svg-text-st" startoffset="1">QRious 2</textPath></text></svg>